<svg width="108" height="108" viewBox="0 0 108 108" fill="none" xmlns="http://www.w3.org/2000/svg">
<circle cx="54" cy="54" r="51" fill="#F1F1F1" stroke="#94A298" stroke-width="6"/>
<path d="M32.8357 87.0612V28.8533H25V20H62.7537V28.8533H43.0119V87.0612H32.8357Z" fill="#1A1A1C"/>
<path d="M52.8828 87.0612V20H67.4348C70.7929 20 73.5405 20.5088 75.474 21.5264C77.5092 22.5441 78.9339 24.1722 79.8498 26.411C80.7656 28.6498 81.1727 31.4991 81.1727 35.1625V37.1978C81.1727 40.6577 80.7656 43.507 79.8498 45.7458C78.9339 47.9846 77.4075 49.6128 75.3722 50.4269C77.1022 51.0374 78.5269 52.0551 79.5445 53.5815C80.5621 55.1079 81.3762 56.9396 81.7832 59.0766C82.1903 61.2136 82.4956 63.6559 82.4956 66.2V68.0317C82.4956 72.5092 81.9868 76.1727 80.9691 78.9202C79.9515 81.7696 78.3233 83.8048 76.1863 85.026C74.0493 86.3489 71.2 86.9594 67.7401 86.9594H52.8828V87.0612ZM63.1608 47.1705H66.926C67.8418 47.1705 68.5542 47.0687 69.063 46.7634C69.5718 46.5599 70.0806 46.0511 70.3859 45.4405C70.6912 44.8299 70.8947 43.9141 70.9965 42.7947C71.0982 41.6753 71.2 40.2507 71.2 38.5207V34.4502C71.2 32.6185 70.9965 31.2956 70.6912 30.3797C70.3859 29.4639 69.8771 28.8533 69.1647 28.4463C68.4524 28.141 67.6383 27.9374 66.5189 27.9374H63.059V47.1705H63.1608ZM63.1608 79.1238H66.8242C68.1471 79.1238 69.2665 78.8185 70.0806 78.2079C70.8947 77.5973 71.5053 76.5797 71.8106 75.2568C72.1158 73.8321 72.3194 72.0004 72.3194 69.5581V64.1647C72.3194 60.9083 72.0141 58.5678 71.4035 57.0414C70.6912 55.515 69.3683 54.8026 67.4348 54.8026H63.1608V79.1238Z" fill="#E0B650"/>
</svg>
